%TF.GenerationSoftware,KiCad,Pcbnew,(6.99.0-1335-gdeb7a0beff)*%
%TF.CreationDate,2022-04-17T14:10:24+02:00*%
%TF.ProjectId,pcb_proto,7063625f-7072-46f7-946f-2e6b69636164,rev?*%
%TF.SameCoordinates,Original*%
%TF.FileFunction,Legend,Top*%
%TF.FilePolarity,Positive*%
%FSLAX46Y46*%
G04 Gerber Fmt 4.6, Leading zero omitted, Abs format (unit mm)*
G04 Created by KiCad (PCBNEW (6.99.0-1335-gdeb7a0beff)) date 2022-04-17 14:10:24*
%MOMM*%
%LPD*%
G01*
G04 APERTURE LIST*
%ADD10C,0.150000*%
%ADD11C,0.100000*%
G04 APERTURE END LIST*
D10*
%TO.C,C4*%
X124333333Y-86857142D02*
X124285714Y-86904761D01*
X124285714Y-86904761D02*
X124142857Y-86952380D01*
X124142857Y-86952380D02*
X124047619Y-86952380D01*
X124047619Y-86952380D02*
X123904762Y-86904761D01*
X123904762Y-86904761D02*
X123809524Y-86809523D01*
X123809524Y-86809523D02*
X123761905Y-86714285D01*
X123761905Y-86714285D02*
X123714286Y-86523809D01*
X123714286Y-86523809D02*
X123714286Y-86380952D01*
X123714286Y-86380952D02*
X123761905Y-86190476D01*
X123761905Y-86190476D02*
X123809524Y-86095238D01*
X123809524Y-86095238D02*
X123904762Y-86000000D01*
X123904762Y-86000000D02*
X124047619Y-85952380D01*
X124047619Y-85952380D02*
X124142857Y-85952380D01*
X124142857Y-85952380D02*
X124285714Y-86000000D01*
X124285714Y-86000000D02*
X124333333Y-86047619D01*
X125190476Y-86285714D02*
X125190476Y-86952380D01*
X124952381Y-85904761D02*
X124714286Y-86619047D01*
X124714286Y-86619047D02*
X125333333Y-86619047D01*
%TO.C,C2*%
X133333333Y-86857142D02*
X133285714Y-86904761D01*
X133285714Y-86904761D02*
X133142857Y-86952380D01*
X133142857Y-86952380D02*
X133047619Y-86952380D01*
X133047619Y-86952380D02*
X132904762Y-86904761D01*
X132904762Y-86904761D02*
X132809524Y-86809523D01*
X132809524Y-86809523D02*
X132761905Y-86714285D01*
X132761905Y-86714285D02*
X132714286Y-86523809D01*
X132714286Y-86523809D02*
X132714286Y-86380952D01*
X132714286Y-86380952D02*
X132761905Y-86190476D01*
X132761905Y-86190476D02*
X132809524Y-86095238D01*
X132809524Y-86095238D02*
X132904762Y-86000000D01*
X132904762Y-86000000D02*
X133047619Y-85952380D01*
X133047619Y-85952380D02*
X133142857Y-85952380D01*
X133142857Y-85952380D02*
X133285714Y-86000000D01*
X133285714Y-86000000D02*
X133333333Y-86047619D01*
X133714286Y-86047619D02*
X133761905Y-86000000D01*
X133761905Y-86000000D02*
X133857143Y-85952380D01*
X133857143Y-85952380D02*
X134095238Y-85952380D01*
X134095238Y-85952380D02*
X134190476Y-86000000D01*
X134190476Y-86000000D02*
X134238095Y-86047619D01*
X134238095Y-86047619D02*
X134285714Y-86142857D01*
X134285714Y-86142857D02*
X134285714Y-86238095D01*
X134285714Y-86238095D02*
X134238095Y-86380952D01*
X134238095Y-86380952D02*
X133666667Y-86952380D01*
X133666667Y-86952380D02*
X134285714Y-86952380D01*
%TO.C,R4*%
X130233333Y-85452380D02*
X129900000Y-84976190D01*
X129661905Y-85452380D02*
X129661905Y-84452380D01*
X129661905Y-84452380D02*
X130042857Y-84452380D01*
X130042857Y-84452380D02*
X130138095Y-84500000D01*
X130138095Y-84500000D02*
X130185714Y-84547619D01*
X130185714Y-84547619D02*
X130233333Y-84642857D01*
X130233333Y-84642857D02*
X130233333Y-84785714D01*
X130233333Y-84785714D02*
X130185714Y-84880952D01*
X130185714Y-84880952D02*
X130138095Y-84928571D01*
X130138095Y-84928571D02*
X130042857Y-84976190D01*
X130042857Y-84976190D02*
X129661905Y-84976190D01*
X131090476Y-84785714D02*
X131090476Y-85452380D01*
X130852381Y-84404761D02*
X130614286Y-85119047D01*
X130614286Y-85119047D02*
X131233333Y-85119047D01*
%TO.C,R2*%
X131652380Y-68766666D02*
X131176190Y-69099999D01*
X131652380Y-69338094D02*
X130652380Y-69338094D01*
X130652380Y-69338094D02*
X130652380Y-68957142D01*
X130652380Y-68957142D02*
X130700000Y-68861904D01*
X130700000Y-68861904D02*
X130747619Y-68814285D01*
X130747619Y-68814285D02*
X130842857Y-68766666D01*
X130842857Y-68766666D02*
X130985714Y-68766666D01*
X130985714Y-68766666D02*
X131080952Y-68814285D01*
X131080952Y-68814285D02*
X131128571Y-68861904D01*
X131128571Y-68861904D02*
X131176190Y-68957142D01*
X131176190Y-68957142D02*
X131176190Y-69338094D01*
X130747619Y-68385713D02*
X130700000Y-68338094D01*
X130700000Y-68338094D02*
X130652380Y-68242856D01*
X130652380Y-68242856D02*
X130652380Y-68004761D01*
X130652380Y-68004761D02*
X130700000Y-67909523D01*
X130700000Y-67909523D02*
X130747619Y-67861904D01*
X130747619Y-67861904D02*
X130842857Y-67814285D01*
X130842857Y-67814285D02*
X130938095Y-67814285D01*
X130938095Y-67814285D02*
X131080952Y-67861904D01*
X131080952Y-67861904D02*
X131652380Y-68433332D01*
X131652380Y-68433332D02*
X131652380Y-67814285D01*
%TO.C,C3*%
X130233333Y-86857142D02*
X130185714Y-86904761D01*
X130185714Y-86904761D02*
X130042857Y-86952380D01*
X130042857Y-86952380D02*
X129947619Y-86952380D01*
X129947619Y-86952380D02*
X129804762Y-86904761D01*
X129804762Y-86904761D02*
X129709524Y-86809523D01*
X129709524Y-86809523D02*
X129661905Y-86714285D01*
X129661905Y-86714285D02*
X129614286Y-86523809D01*
X129614286Y-86523809D02*
X129614286Y-86380952D01*
X129614286Y-86380952D02*
X129661905Y-86190476D01*
X129661905Y-86190476D02*
X129709524Y-86095238D01*
X129709524Y-86095238D02*
X129804762Y-86000000D01*
X129804762Y-86000000D02*
X129947619Y-85952380D01*
X129947619Y-85952380D02*
X130042857Y-85952380D01*
X130042857Y-85952380D02*
X130185714Y-86000000D01*
X130185714Y-86000000D02*
X130233333Y-86047619D01*
X130566667Y-85952380D02*
X131185714Y-85952380D01*
X131185714Y-85952380D02*
X130852381Y-86333333D01*
X130852381Y-86333333D02*
X130995238Y-86333333D01*
X130995238Y-86333333D02*
X131090476Y-86380952D01*
X131090476Y-86380952D02*
X131138095Y-86428571D01*
X131138095Y-86428571D02*
X131185714Y-86523809D01*
X131185714Y-86523809D02*
X131185714Y-86761904D01*
X131185714Y-86761904D02*
X131138095Y-86857142D01*
X131138095Y-86857142D02*
X131090476Y-86904761D01*
X131090476Y-86904761D02*
X130995238Y-86952380D01*
X130995238Y-86952380D02*
X130709524Y-86952380D01*
X130709524Y-86952380D02*
X130614286Y-86904761D01*
X130614286Y-86904761D02*
X130566667Y-86857142D01*
%TO.C,C1*%
X127557142Y-68766666D02*
X127604761Y-68814285D01*
X127604761Y-68814285D02*
X127652380Y-68957142D01*
X127652380Y-68957142D02*
X127652380Y-69052380D01*
X127652380Y-69052380D02*
X127604761Y-69195237D01*
X127604761Y-69195237D02*
X127509523Y-69290475D01*
X127509523Y-69290475D02*
X127414285Y-69338094D01*
X127414285Y-69338094D02*
X127223809Y-69385713D01*
X127223809Y-69385713D02*
X127080952Y-69385713D01*
X127080952Y-69385713D02*
X126890476Y-69338094D01*
X126890476Y-69338094D02*
X126795238Y-69290475D01*
X126795238Y-69290475D02*
X126700000Y-69195237D01*
X126700000Y-69195237D02*
X126652380Y-69052380D01*
X126652380Y-69052380D02*
X126652380Y-68957142D01*
X126652380Y-68957142D02*
X126700000Y-68814285D01*
X126700000Y-68814285D02*
X126747619Y-68766666D01*
X127652380Y-67814285D02*
X127652380Y-68385713D01*
X127652380Y-68099999D02*
X126652380Y-68099999D01*
X126652380Y-68099999D02*
X126795238Y-68195237D01*
X126795238Y-68195237D02*
X126890476Y-68290475D01*
X126890476Y-68290475D02*
X126938095Y-68385713D01*
%TO.C,R1*%
X133652380Y-68766666D02*
X133176190Y-69099999D01*
X133652380Y-69338094D02*
X132652380Y-69338094D01*
X132652380Y-69338094D02*
X132652380Y-68957142D01*
X132652380Y-68957142D02*
X132700000Y-68861904D01*
X132700000Y-68861904D02*
X132747619Y-68814285D01*
X132747619Y-68814285D02*
X132842857Y-68766666D01*
X132842857Y-68766666D02*
X132985714Y-68766666D01*
X132985714Y-68766666D02*
X133080952Y-68814285D01*
X133080952Y-68814285D02*
X133128571Y-68861904D01*
X133128571Y-68861904D02*
X133176190Y-68957142D01*
X133176190Y-68957142D02*
X133176190Y-69338094D01*
X133652380Y-67814285D02*
X133652380Y-68385713D01*
X133652380Y-68099999D02*
X132652380Y-68099999D01*
X132652380Y-68099999D02*
X132795238Y-68195237D01*
X132795238Y-68195237D02*
X132890476Y-68290475D01*
X132890476Y-68290475D02*
X132938095Y-68385713D01*
%TO.C,U2*%
X123738095Y-72952380D02*
X123738095Y-73761904D01*
X123738095Y-73761904D02*
X123785714Y-73857142D01*
X123785714Y-73857142D02*
X123833333Y-73904761D01*
X123833333Y-73904761D02*
X123928571Y-73952380D01*
X123928571Y-73952380D02*
X124119047Y-73952380D01*
X124119047Y-73952380D02*
X124214285Y-73904761D01*
X124214285Y-73904761D02*
X124261904Y-73857142D01*
X124261904Y-73857142D02*
X124309523Y-73761904D01*
X124309523Y-73761904D02*
X124309523Y-72952380D01*
X124738095Y-73047619D02*
X124785714Y-73000000D01*
X124785714Y-73000000D02*
X124880952Y-72952380D01*
X124880952Y-72952380D02*
X125119047Y-72952380D01*
X125119047Y-72952380D02*
X125214285Y-73000000D01*
X125214285Y-73000000D02*
X125261904Y-73047619D01*
X125261904Y-73047619D02*
X125309523Y-73142857D01*
X125309523Y-73142857D02*
X125309523Y-73238095D01*
X125309523Y-73238095D02*
X125261904Y-73380952D01*
X125261904Y-73380952D02*
X124690476Y-73952380D01*
X124690476Y-73952380D02*
X125309523Y-73952380D01*
%TO.C,R3*%
X129652380Y-68766666D02*
X129176190Y-69099999D01*
X129652380Y-69338094D02*
X128652380Y-69338094D01*
X128652380Y-69338094D02*
X128652380Y-68957142D01*
X128652380Y-68957142D02*
X128700000Y-68861904D01*
X128700000Y-68861904D02*
X128747619Y-68814285D01*
X128747619Y-68814285D02*
X128842857Y-68766666D01*
X128842857Y-68766666D02*
X128985714Y-68766666D01*
X128985714Y-68766666D02*
X129080952Y-68814285D01*
X129080952Y-68814285D02*
X129128571Y-68861904D01*
X129128571Y-68861904D02*
X129176190Y-68957142D01*
X129176190Y-68957142D02*
X129176190Y-69338094D01*
X128652380Y-68433332D02*
X128652380Y-67814285D01*
X128652380Y-67814285D02*
X129033333Y-68147618D01*
X129033333Y-68147618D02*
X129033333Y-68004761D01*
X129033333Y-68004761D02*
X129080952Y-67909523D01*
X129080952Y-67909523D02*
X129128571Y-67861904D01*
X129128571Y-67861904D02*
X129223809Y-67814285D01*
X129223809Y-67814285D02*
X129461904Y-67814285D01*
X129461904Y-67814285D02*
X129557142Y-67861904D01*
X129557142Y-67861904D02*
X129604761Y-67909523D01*
X129604761Y-67909523D02*
X129652380Y-68004761D01*
X129652380Y-68004761D02*
X129652380Y-68290475D01*
X129652380Y-68290475D02*
X129604761Y-68385713D01*
X129604761Y-68385713D02*
X129557142Y-68433332D01*
D11*
%TO.C,U2*%
X136300000Y-74000000D02*
G75*
G03*
X136300000Y-74000000I-200000J0D01*
G01*
%TD*%
M02*
