M48
; DRILL file {KiCad (6.99.0-1335-gdeb7a0beff)} date Sun Apr 17 14:10:27 2022
; FORMAT={-:-/ absolute / inch / decimal}
; #@! TF.CreationDate,2022-04-17T14:10:27+02:00
; #@! TF.GenerationSoftware,Kicad,Pcbnew,(6.99.0-1335-gdeb7a0beff)
; #@! TF.FileFunction,Plated,1,2,PTH
FMAT,2
INCH
; #@! TA.AperFunction,Plated,PTH,ViaDrill
T1C0.0118
; #@! TA.AperFunction,Plated,PTH,ComponentDrill
T2C0.0197
; #@! TA.AperFunction,Plated,PTH,ComponentDrill
T3C0.1260
%
G90
G05
T1
X4.8268Y-3.4016
X4.8425Y-2.5984
X5.0945Y-2.9055
X5.1681Y-2.9055
X5.2441Y-2.9055
X5.4173Y-3.4016
T2
X4.3543Y-2.2835
X4.3543Y-4.1339
X4.382Y-2.2167
X4.382Y-2.3503
X4.382Y-4.067
X4.382Y-4.2007
X4.4488Y-2.189
X4.4488Y-2.378
X4.4488Y-4.0394
X4.4488Y-4.2283
X4.5156Y-2.2167
X4.5156Y-2.3503
X4.5156Y-4.067
X4.5156Y-4.2007
X4.5433Y-2.2835
X4.5433Y-4.1339
X5.6929Y-2.2835
X5.6929Y-4.1339
X5.7206Y-2.2167
X5.7206Y-2.3503
X5.7206Y-4.067
X5.7206Y-4.2007
X5.7874Y-2.189
X5.7874Y-2.378
X5.7874Y-4.0394
X5.7874Y-4.2283
X5.8542Y-2.2167
X5.8542Y-2.3503
X5.8542Y-4.067
X5.8542Y-4.2007
X5.8819Y-2.2835
X5.8819Y-4.1339
T3
X4.4488Y-2.2835
X4.4488Y-4.1339
X5.7874Y-2.2835
X5.7874Y-4.1339
T0
M30
