%TF.GenerationSoftware,KiCad,Pcbnew,(6.99.0-1335-gdeb7a0beff)*%
%TF.CreationDate,2022-04-17T14:10:24+02:00*%
%TF.ProjectId,pcb_proto,7063625f-7072-46f7-946f-2e6b69636164,rev?*%
%TF.SameCoordinates,Original*%
%TF.FileFunction,Copper,L2,Bot*%
%TF.FilePolarity,Positive*%
%FSLAX46Y46*%
G04 Gerber Fmt 4.6, Leading zero omitted, Abs format (unit mm)*
G04 Created by KiCad (PCBNEW (6.99.0-1335-gdeb7a0beff)) date 2022-04-17 14:10:24*
%MOMM*%
%LPD*%
G01*
G04 APERTURE LIST*
G04 Aperture macros list*
%AMRoundRect*
0 Rectangle with rounded corners*
0 $1 Rounding radius*
0 $2 $3 $4 $5 $6 $7 $8 $9 X,Y pos of 4 corners*
0 Add a 4 corners polygon primitive as box body*
4,1,4,$2,$3,$4,$5,$6,$7,$8,$9,$2,$3,0*
0 Add four circle primitives for the rounded corners*
1,1,$1+$1,$2,$3*
1,1,$1+$1,$4,$5*
1,1,$1+$1,$6,$7*
1,1,$1+$1,$8,$9*
0 Add four rect primitives between the rounded corners*
20,1,$1+$1,$2,$3,$4,$5,0*
20,1,$1+$1,$4,$5,$6,$7,0*
20,1,$1+$1,$6,$7,$8,$9,0*
20,1,$1+$1,$8,$9,$2,$3,0*%
G04 Aperture macros list end*
%TA.AperFunction,ComponentPad*%
%ADD10C,0.800000*%
%TD*%
%TA.AperFunction,ComponentPad*%
%ADD11C,6.400000*%
%TD*%
%TA.AperFunction,SMDPad,CuDef*%
%ADD12RoundRect,0.038000X0.342000X0.597000X-0.342000X0.597000X-0.342000X-0.597000X0.342000X-0.597000X0*%
%TD*%
%TA.AperFunction,SMDPad,CuDef*%
%ADD13R,3.500000X1.700000*%
%TD*%
%TA.AperFunction,SMDPad,CuDef*%
%ADD14R,1.700000X3.500000*%
%TD*%
%TA.AperFunction,ViaPad*%
%ADD15C,0.600000*%
%TD*%
%TA.AperFunction,Conductor*%
%ADD16C,0.250000*%
%TD*%
G04 APERTURE END LIST*
D10*
%TO.P,H2,1*%
%TO.N,N/C*%
X110600000Y-105000000D03*
X111302944Y-103302944D03*
X111302944Y-106697056D03*
X113000000Y-102600000D03*
D11*
X113000000Y-105000000D03*
D10*
X113000000Y-107400000D03*
X114697056Y-103302944D03*
X114697056Y-106697056D03*
X115400000Y-105000000D03*
%TD*%
%TO.P,H3,1*%
%TO.N,N/C*%
X144600000Y-105000000D03*
X145302944Y-103302944D03*
X145302944Y-106697056D03*
X147000000Y-102600000D03*
D11*
X147000000Y-105000000D03*
D10*
X147000000Y-107400000D03*
X148697056Y-103302944D03*
X148697056Y-106697056D03*
X149400000Y-105000000D03*
%TD*%
%TO.P,H1,1*%
%TO.N,N/C*%
X110600000Y-58000000D03*
X111302944Y-56302944D03*
X111302944Y-59697056D03*
X113000000Y-55600000D03*
D11*
X113000000Y-58000000D03*
D10*
X113000000Y-60400000D03*
X114697056Y-56302944D03*
X114697056Y-59697056D03*
X115400000Y-58000000D03*
%TD*%
%TO.P,H4,1*%
%TO.N,N/C*%
X144600000Y-58000000D03*
X145302944Y-56302944D03*
X145302944Y-59697056D03*
X147000000Y-55600000D03*
D11*
X147000000Y-58000000D03*
D10*
X147000000Y-60400000D03*
X148697056Y-56302944D03*
X148697056Y-59697056D03*
X149400000Y-58000000D03*
%TD*%
D12*
%TO.P,S1,1*%
%TO.N,/SW0*%
X115800000Y-86800000D03*
%TO.P,S1,2*%
%TO.N,/SW1*%
X114530000Y-86800000D03*
%TO.P,S1,3*%
%TO.N,/SW2*%
X113260000Y-86800000D03*
%TO.P,S1,4*%
%TO.N,/SW3*%
X111990000Y-86800000D03*
%TO.P,S1,5*%
%TO.N,GND*%
X111990000Y-79200000D03*
%TO.P,S1,6*%
X113260000Y-79200000D03*
%TO.P,S1,7*%
X114530000Y-79200000D03*
%TO.P,S1,8*%
X115800000Y-79200000D03*
%TD*%
D13*
%TO.P,U1,1,GPIO0*%
%TO.N,unconnected-(U1-GPIO0)*%
X139789999Y-55869999D03*
%TO.P,U1,2,GPIO1*%
%TO.N,unconnected-(U1-GPIO1)*%
X139789999Y-58409999D03*
%TO.P,U1,3,GND*%
%TO.N,unconnected-(U1-GND)_3*%
X139789999Y-60949999D03*
%TO.P,U1,4,GPIO2*%
%TO.N,unconnected-(U1-GPIO2)*%
X139789999Y-63489999D03*
%TO.P,U1,5,GPIO3*%
%TO.N,/INT*%
X139789999Y-66029999D03*
%TO.P,U1,6,GPIO4*%
%TO.N,/SDA*%
X139789999Y-68569999D03*
%TO.P,U1,7,GPIO5*%
%TO.N,/SCL*%
X139789999Y-71109999D03*
%TO.P,U1,8,GND*%
%TO.N,unconnected-(U1-GND)*%
X139789999Y-73649999D03*
%TO.P,U1,9,GPIO6*%
%TO.N,unconnected-(U1-GPIO6)*%
X139789999Y-76189999D03*
%TO.P,U1,10,GPIO7*%
%TO.N,unconnected-(U1-GPIO7)*%
X139789999Y-78729999D03*
%TO.P,U1,11,GPIO8*%
%TO.N,unconnected-(U1-GPIO8)*%
X139789999Y-81269999D03*
%TO.P,U1,12,GPIO9*%
%TO.N,unconnected-(U1-GPIO9)*%
X139789999Y-83809999D03*
%TO.P,U1,13,GND*%
%TO.N,GND*%
X139789999Y-86349999D03*
%TO.P,U1,14,GPIO10*%
%TO.N,unconnected-(U1-GPIO10)*%
X139789999Y-88889999D03*
%TO.P,U1,15,GPIO11*%
%TO.N,unconnected-(U1-GPIO11)*%
X139789999Y-91429999D03*
%TO.P,U1,16,GPIO12*%
%TO.N,unconnected-(U1-GPIO12)*%
X139789999Y-93969999D03*
%TO.P,U1,17,GPIO13*%
%TO.N,unconnected-(U1-GPIO13)*%
X139789999Y-96509999D03*
%TO.P,U1,18,GND*%
%TO.N,unconnected-(U1-GND)_1*%
X139789999Y-99049999D03*
%TO.P,U1,19,GPIO14*%
%TO.N,unconnected-(U1-GPIO14)*%
X139789999Y-101589999D03*
%TO.P,U1,20,GPIO15*%
%TO.N,unconnected-(U1-GPIO15)*%
X139789999Y-104129999D03*
%TO.P,U1,21,GPIO16*%
%TO.N,unconnected-(U1-GPIO16)*%
X120209999Y-104129999D03*
%TO.P,U1,22,GPIO17*%
%TO.N,unconnected-(U1-GPIO17)*%
X120209999Y-101589999D03*
%TO.P,U1,23,GND*%
%TO.N,unconnected-(U1-GND)_2*%
X120209999Y-99049999D03*
%TO.P,U1,24,GPIO18*%
%TO.N,/SW3*%
X120209999Y-96509999D03*
%TO.P,U1,25,GPIO19*%
%TO.N,/SW2*%
X120209999Y-93969999D03*
%TO.P,U1,26,GPIO20*%
%TO.N,/SW1*%
X120209999Y-91429999D03*
%TO.P,U1,27,GPIO21*%
%TO.N,/SW0*%
X120209999Y-88889999D03*
%TO.P,U1,28,GND*%
%TO.N,GND*%
X120209999Y-86349999D03*
%TO.P,U1,29,GPIO22*%
%TO.N,unconnected-(U1-GPIO22)*%
X120209999Y-83809999D03*
%TO.P,U1,30,RUN*%
%TO.N,unconnected-(U1-RUN)*%
X120209999Y-81269999D03*
%TO.P,U1,31,GPIO26_ADC0*%
%TO.N,unconnected-(U1-GPIO26_ADC0)*%
X120209999Y-78729999D03*
%TO.P,U1,32,GPIO27_ADC1*%
%TO.N,unconnected-(U1-GPIO27_ADC1)*%
X120209999Y-76189999D03*
%TO.P,U1,33,AGND*%
%TO.N,unconnected-(U1-AGND)*%
X120209999Y-73649999D03*
%TO.P,U1,34,GPIO28_ADC2*%
%TO.N,unconnected-(U1-GPIO28_ADC2)*%
X120209999Y-71109999D03*
%TO.P,U1,35,ADC_VREF*%
%TO.N,unconnected-(U1-ADC_VREF)*%
X120209999Y-68569999D03*
%TO.P,U1,36,3V3*%
%TO.N,+3V3*%
X120209999Y-66029999D03*
%TO.P,U1,37,3V3_EN*%
%TO.N,unconnected-(U1-3V3_EN)*%
X120209999Y-63489999D03*
%TO.P,U1,38,GND*%
%TO.N,unconnected-(U1-GND)_4*%
X120209999Y-60949999D03*
%TO.P,U1,39,VSYS*%
%TO.N,unconnected-(U1-VSYS)*%
X120209999Y-58409999D03*
%TO.P,U1,40,VBUS*%
%TO.N,unconnected-(U1-VBUS)*%
X120209999Y-55869999D03*
D14*
%TO.P,U1,41,SWCLK*%
%TO.N,unconnected-(U1-SWCLK)*%
X132539999Y-104799999D03*
%TO.P,U1,42,GND*%
%TO.N,unconnected-(U1-GND)_5*%
X129999999Y-104799999D03*
%TO.P,U1,43,SWDIO*%
%TO.N,unconnected-(U1-SWDIO)*%
X127459999Y-104799999D03*
%TD*%
D15*
%TO.N,GND*%
X137600000Y-86400000D03*
X122600000Y-86400000D03*
%TO.N,/SDA*%
X133200000Y-73800000D03*
%TO.N,/SCL*%
X131270000Y-73800000D03*
%TO.N,/INT*%
X129400000Y-73800000D03*
%TO.N,+3V3*%
X123000000Y-66000000D03*
%TD*%
D16*
%TO.N,GND*%
X121110000Y-86350000D02*
X117650000Y-86350000D01*
X115800000Y-84500000D02*
X115800000Y-79200000D01*
X137650000Y-86350000D02*
X137600000Y-86400000D01*
X122550000Y-86350000D02*
X122600000Y-86400000D01*
X115800000Y-79200000D02*
X112095000Y-79200000D01*
X117650000Y-86350000D02*
X115800000Y-84500000D01*
X138890000Y-86350000D02*
X137650000Y-86350000D01*
X121110000Y-86350000D02*
X122550000Y-86350000D01*
%TO.N,/SDA*%
X133200000Y-72600000D02*
X137230000Y-68570000D01*
X133200000Y-73800000D02*
X133200000Y-72600000D01*
X137230000Y-68570000D02*
X138890000Y-68570000D01*
%TO.N,/SCL*%
X133800000Y-74800000D02*
X137490000Y-71110000D01*
X137490000Y-71110000D02*
X138890000Y-71110000D01*
X132270000Y-74800000D02*
X133800000Y-74800000D01*
X131270000Y-73800000D02*
X132270000Y-74800000D01*
%TO.N,/INT*%
X129400000Y-73800000D02*
X131400000Y-71800000D01*
X137170000Y-66030000D02*
X138890000Y-66030000D01*
X131400000Y-71800000D02*
X132600000Y-71800000D01*
X132600000Y-71800000D02*
X136400000Y-68000000D01*
X136400000Y-66800000D02*
X137170000Y-66030000D01*
X136400000Y-68000000D02*
X136400000Y-66800000D01*
%TO.N,+3V3*%
X123000000Y-66000000D02*
X121140000Y-66000000D01*
X121140000Y-66000000D02*
X121110000Y-66030000D01*
%TO.N,/SW0*%
X121110000Y-88890000D02*
X116490000Y-88890000D01*
X115800000Y-88200000D02*
X115800000Y-86800000D01*
X116490000Y-88890000D02*
X115800000Y-88200000D01*
%TO.N,/SW1*%
X114530000Y-89930000D02*
X114530000Y-86800000D01*
X121110000Y-91430000D02*
X116030000Y-91430000D01*
X116030000Y-91430000D02*
X114530000Y-89930000D01*
%TO.N,/SW2*%
X114970000Y-93970000D02*
X113260000Y-92260000D01*
X121110000Y-93970000D02*
X114970000Y-93970000D01*
X113260000Y-92260000D02*
X113260000Y-86800000D01*
%TO.N,/SW3*%
X114310000Y-96510000D02*
X111990000Y-94190000D01*
X121110000Y-96510000D02*
X114310000Y-96510000D01*
X111990000Y-94190000D02*
X111990000Y-86800000D01*
%TD*%
M02*
