%TF.GenerationSoftware,KiCad,Pcbnew,(6.99.0-1335-gdeb7a0beff)*%
%TF.CreationDate,2022-04-17T14:10:24+02:00*%
%TF.ProjectId,pcb_proto,7063625f-7072-46f7-946f-2e6b69636164,rev?*%
%TF.SameCoordinates,Original*%
%TF.FileFunction,Soldermask,Bot*%
%TF.FilePolarity,Negative*%
%FSLAX46Y46*%
G04 Gerber Fmt 4.6, Leading zero omitted, Abs format (unit mm)*
G04 Created by KiCad (PCBNEW (6.99.0-1335-gdeb7a0beff)) date 2022-04-17 14:10:24*
%MOMM*%
%LPD*%
G01*
G04 APERTURE LIST*
G04 Aperture macros list*
%AMRoundRect*
0 Rectangle with rounded corners*
0 $1 Rounding radius*
0 $2 $3 $4 $5 $6 $7 $8 $9 X,Y pos of 4 corners*
0 Add a 4 corners polygon primitive as box body*
4,1,4,$2,$3,$4,$5,$6,$7,$8,$9,$2,$3,0*
0 Add four circle primitives for the rounded corners*
1,1,$1+$1,$2,$3*
1,1,$1+$1,$4,$5*
1,1,$1+$1,$6,$7*
1,1,$1+$1,$8,$9*
0 Add four rect primitives between the rounded corners*
20,1,$1+$1,$2,$3,$4,$5,0*
20,1,$1+$1,$4,$5,$6,$7,0*
20,1,$1+$1,$6,$7,$8,$9,0*
20,1,$1+$1,$8,$9,$2,$3,0*%
G04 Aperture macros list end*
%ADD10C,0.800000*%
%ADD11C,6.400000*%
%ADD12RoundRect,0.138000X0.342000X0.597000X-0.342000X0.597000X-0.342000X-0.597000X0.342000X-0.597000X0*%
%ADD13O,1.800000X1.800000*%
%ADD14O,1.500000X1.500000*%
%ADD15R,3.500000X1.700000*%
%ADD16R,1.700000X3.500000*%
G04 APERTURE END LIST*
D10*
%TO.C,H2*%
X110600000Y-105000000D03*
X111302944Y-103302944D03*
X111302944Y-106697056D03*
X113000000Y-102600000D03*
D11*
X113000000Y-105000000D03*
D10*
X113000000Y-107400000D03*
X114697056Y-103302944D03*
X114697056Y-106697056D03*
X115400000Y-105000000D03*
%TD*%
%TO.C,H3*%
X144600000Y-105000000D03*
X145302944Y-103302944D03*
X145302944Y-106697056D03*
X147000000Y-102600000D03*
D11*
X147000000Y-105000000D03*
D10*
X147000000Y-107400000D03*
X148697056Y-103302944D03*
X148697056Y-106697056D03*
X149400000Y-105000000D03*
%TD*%
%TO.C,H1*%
X110600000Y-58000000D03*
X111302944Y-56302944D03*
X111302944Y-59697056D03*
X113000000Y-55600000D03*
D11*
X113000000Y-58000000D03*
D10*
X113000000Y-60400000D03*
X114697056Y-56302944D03*
X114697056Y-59697056D03*
X115400000Y-58000000D03*
%TD*%
%TO.C,H4*%
X144600000Y-58000000D03*
X145302944Y-56302944D03*
X145302944Y-59697056D03*
X147000000Y-55600000D03*
D11*
X147000000Y-58000000D03*
D10*
X147000000Y-60400000D03*
X148697056Y-56302944D03*
X148697056Y-59697056D03*
X149400000Y-58000000D03*
%TD*%
D12*
%TO.C,S1*%
X115800000Y-86800000D03*
X114530000Y-86800000D03*
X113260000Y-86800000D03*
X111990000Y-86800000D03*
X111990000Y-79200000D03*
X113260000Y-79200000D03*
X114530000Y-79200000D03*
X115800000Y-79200000D03*
%TD*%
D13*
%TO.C,U1*%
X132724999Y-55999999D03*
D14*
X132424999Y-59029999D03*
X127574999Y-59029999D03*
D13*
X127274999Y-55999999D03*
D15*
X139789999Y-55869999D03*
X139789999Y-58409999D03*
X139789999Y-60949999D03*
X139789999Y-63489999D03*
X139789999Y-66029999D03*
X139789999Y-68569999D03*
X139789999Y-71109999D03*
X139789999Y-73649999D03*
X139789999Y-76189999D03*
X139789999Y-78729999D03*
X139789999Y-81269999D03*
X139789999Y-83809999D03*
X139789999Y-86349999D03*
X139789999Y-88889999D03*
X139789999Y-91429999D03*
X139789999Y-93969999D03*
X139789999Y-96509999D03*
X139789999Y-99049999D03*
X139789999Y-101589999D03*
X139789999Y-104129999D03*
X120209999Y-104129999D03*
X120209999Y-101589999D03*
X120209999Y-99049999D03*
X120209999Y-96509999D03*
X120209999Y-93969999D03*
X120209999Y-91429999D03*
X120209999Y-88889999D03*
X120209999Y-86349999D03*
X120209999Y-83809999D03*
X120209999Y-81269999D03*
X120209999Y-78729999D03*
X120209999Y-76189999D03*
X120209999Y-73649999D03*
X120209999Y-71109999D03*
X120209999Y-68569999D03*
X120209999Y-66029999D03*
X120209999Y-63489999D03*
X120209999Y-60949999D03*
X120209999Y-58409999D03*
X120209999Y-55869999D03*
D16*
X132539999Y-104799999D03*
X129999999Y-104799999D03*
X127459999Y-104799999D03*
%TD*%
M02*
