%TF.GenerationSoftware,KiCad,Pcbnew,(6.99.0-1335-gdeb7a0beff)*%
%TF.CreationDate,2022-04-17T14:10:24+02:00*%
%TF.ProjectId,pcb_proto,7063625f-7072-46f7-946f-2e6b69636164,rev?*%
%TF.SameCoordinates,Original*%
%TF.FileFunction,Soldermask,Top*%
%TF.FilePolarity,Negative*%
%FSLAX46Y46*%
G04 Gerber Fmt 4.6, Leading zero omitted, Abs format (unit mm)*
G04 Created by KiCad (PCBNEW (6.99.0-1335-gdeb7a0beff)) date 2022-04-17 14:10:24*
%MOMM*%
%LPD*%
G01*
G04 APERTURE LIST*
G04 Aperture macros list*
%AMRoundRect*
0 Rectangle with rounded corners*
0 $1 Rounding radius*
0 $2 $3 $4 $5 $6 $7 $8 $9 X,Y pos of 4 corners*
0 Add a 4 corners polygon primitive as box body*
4,1,4,$2,$3,$4,$5,$6,$7,$8,$9,$2,$3,0*
0 Add four circle primitives for the rounded corners*
1,1,$1+$1,$2,$3*
1,1,$1+$1,$4,$5*
1,1,$1+$1,$6,$7*
1,1,$1+$1,$8,$9*
0 Add four rect primitives between the rounded corners*
20,1,$1+$1,$2,$3,$4,$5,0*
20,1,$1+$1,$4,$5,$6,$7,0*
20,1,$1+$1,$6,$7,$8,$9,0*
20,1,$1+$1,$8,$9,$2,$3,0*%
G04 Aperture macros list end*
%ADD10RoundRect,0.145000X0.405000X0.430000X-0.405000X0.430000X-0.405000X-0.430000X0.405000X-0.430000X0*%
%ADD11RoundRect,0.145000X-0.405000X-0.430000X0.405000X-0.430000X0.405000X0.430000X-0.405000X0.430000X0*%
%ADD12RoundRect,0.140000X-0.360000X-0.435000X0.360000X-0.435000X0.360000X0.435000X-0.360000X0.435000X0*%
%ADD13C,0.800000*%
%ADD14C,6.400000*%
%ADD15RoundRect,0.140000X-0.435000X0.360000X-0.435000X-0.360000X0.435000X-0.360000X0.435000X0.360000X0*%
%ADD16RoundRect,0.145000X-0.430000X0.405000X-0.430000X-0.405000X0.430000X-0.405000X0.430000X0.405000X0*%
%ADD17RoundRect,0.140000X0.360000X1.760000X-0.360000X1.760000X-0.360000X-1.760000X0.360000X-1.760000X0*%
%ADD18RoundRect,0.135000X0.315000X1.265000X-0.315000X1.265000X-0.315000X-1.265000X0.315000X-1.265000X0*%
%ADD19RoundRect,0.140000X0.360000X1.260000X-0.360000X1.260000X-0.360000X-1.260000X0.360000X-1.260000X0*%
%ADD20O,1.800000X1.800000*%
%ADD21O,1.500000X1.500000*%
G04 APERTURE END LIST*
%TO.C,U2*%
G36*
X132860000Y-83450000D02*
G01*
X127140000Y-83450000D01*
X127140000Y-80650000D01*
X132860000Y-80650000D01*
X132860000Y-83450000D01*
G37*
G36*
X132860000Y-77350000D02*
G01*
X127140000Y-77350000D01*
X127140000Y-74550000D01*
X132860000Y-74550000D01*
X132860000Y-77350000D01*
G37*
%TD*%
D10*
%TO.C,C4*%
X125275000Y-85000000D03*
X123725000Y-85000000D03*
%TD*%
D11*
%TO.C,C2*%
X132725000Y-85000000D03*
X134275000Y-85000000D03*
%TD*%
D12*
%TO.C,R4*%
X127075000Y-85000000D03*
X128725000Y-85000000D03*
%TD*%
D13*
%TO.C,H2*%
X110600000Y-105000000D03*
X111302944Y-103302944D03*
X111302944Y-106697056D03*
X113000000Y-102600000D03*
D14*
X113000000Y-105000000D03*
D13*
X113000000Y-107400000D03*
X114697056Y-103302944D03*
X114697056Y-106697056D03*
X115400000Y-105000000D03*
%TD*%
%TO.C,H3*%
X144600000Y-105000000D03*
X145302944Y-103302944D03*
X145302944Y-106697056D03*
X147000000Y-102600000D03*
D14*
X147000000Y-105000000D03*
D13*
X147000000Y-107400000D03*
X148697056Y-103302944D03*
X148697056Y-106697056D03*
X149400000Y-105000000D03*
%TD*%
D15*
%TO.C,R2*%
X131200000Y-70975000D03*
X131200000Y-72625000D03*
%TD*%
D11*
%TO.C,C3*%
X127125000Y-86500000D03*
X128675000Y-86500000D03*
%TD*%
D16*
%TO.C,C1*%
X127200000Y-71025000D03*
X127200000Y-72575000D03*
%TD*%
D15*
%TO.C,R1*%
X133200000Y-70975000D03*
X133200000Y-72625000D03*
%TD*%
D13*
%TO.C,H1*%
X110600000Y-58000000D03*
X111302944Y-56302944D03*
X111302944Y-59697056D03*
X113000000Y-55600000D03*
D14*
X113000000Y-58000000D03*
D13*
X113000000Y-60400000D03*
X114697056Y-56302944D03*
X114697056Y-59697056D03*
X115400000Y-58000000D03*
%TD*%
%TO.C,H4*%
X144600000Y-58000000D03*
X145302944Y-56302944D03*
X145302944Y-59697056D03*
X147000000Y-55600000D03*
D14*
X147000000Y-58000000D03*
D13*
X147000000Y-60400000D03*
X148697056Y-56302944D03*
X148697056Y-59697056D03*
X149400000Y-58000000D03*
%TD*%
D17*
%TO.C,U2*%
X135500000Y-76450000D03*
D18*
X132540000Y-75950000D03*
X131270000Y-75950000D03*
X130000000Y-75950000D03*
X128730000Y-75950000D03*
X127460000Y-75950000D03*
D19*
X124500000Y-75950000D03*
X124500000Y-82050000D03*
D18*
X127460000Y-82050000D03*
X128730000Y-82050000D03*
X130000000Y-82050000D03*
X131270000Y-82050000D03*
X132540000Y-82050000D03*
D19*
X135500000Y-82050000D03*
%TD*%
D15*
%TO.C,R3*%
X129200000Y-70975000D03*
X129200000Y-72625000D03*
%TD*%
D20*
%TO.C,U1*%
X132724999Y-55999999D03*
D21*
X132424999Y-59029999D03*
X127574999Y-59029999D03*
D20*
X127274999Y-55999999D03*
%TD*%
M02*
